{
  "asset": {
    "version": "2.0",
    "generator": "THREE.GLTFExporter"
  },
  "scenes": [
    {
      "nodes": [
        0
      ]
    }
  ],
  "scene": 0,
  "nodes": [
    {
      "children": [
        12
      ],
      "matrix": [
        0.01,
        0,
        0,
        0,
        0,
        0.01,
        0,
        0,
        0,
        0,
        0.01,
        0,
        0,
        0,
        0,
        1
      ]
    },
    {
      "matrix": [
        1.0145882968102213,
        0,
        0,
        0,
        0,
        0.9891267912446141,
        0,
        0,
        0,
        0,
        0.9854536711167261,
        0,
        -31.446345745381684,
        42.671770054717896,
        65.10413038417309,
        1
      ],
      "name": "Group"
    },
    {
      "matrix": [
        0.04830141750369381,
        -0.19203333463032574,
        -0.980199046856245,
        0,
        -0.9697932384827777,
        -0.24392842104413798,
        0,
        0,
        -0.23909840580861286,
        0.9505904080084497,
        -0.19801471799366027,
        0,
        0,
        0,
        0,
        1
      ],
      "name": "Directional Light 2",
      "extensions": {
        "KHR_lights_punctual": {
          "light": 0
        }
      }
    },
    {
      "matrix": [
        0.2521716712226252,
        -0.43591919071992896,
        -0.8639351291589378,
        0,
        0.86560067221403,
        0.5007349361315021,
        0,
        0,
        0.4326025017211617,
        -0.7478228285492914,
        0.5036031102020018,
        0,
        0,
        0,
        0,
        1
      ],
      "name": "Directional Light",
      "extensions": {
        "KHR_lights_punctual": {
          "light": 1
        }
      }
    },
    {
      "matrix": [
        -1.351343655829102e-15,
        0.05304815041824714,
        0.9840248125197243,
        0,
        1.0145882968102222,
        -2.1397667763856274e-16,
        1.3659743976060335e-15,
        0,
        7.742644953944463e-18,
        0.9876926068069907,
        -0.05324587887039447,
        0,
        5.250526175168496,
        -16.107658732133018,
        65.10412939962013,
        1
      ],
      "name": "Rectangle 2",
      "mesh": 0
    },
    {
      "matrix": [
        0.5435720144368664,
        0.10006642122976785,
        0.08179307964275835,
        0,
        -0.14693695493877276,
        0.9503791823918588,
        -0.23286909225580718,
        0,
        -0.1906905558869362,
        0.205504474912946,
        0.9459903220886173,
        0,
        34.361802642478,
        -5.103751816206659,
        6.2596517748684,
        0.9999999999999996
      ],
      "name": "Sphere 2",
      "mesh": 1
    },
    {
      "matrix": [
        0.9737148538396931,
        -0.2360961461518207,
        -0.14608563461822263,
        0,
        0.24717284539469253,
        0.9591992088382253,
        0.015522404589051578,
        0,
        0.14203936169492418,
        -0.0506741294009824,
        0.9744419882663736,
        0,
        -35.60691289096045,
        -3.3886666399989007,
        9.877144693452173,
        0.9999999999999999
      ],
      "name": "Sphere",
      "mesh": 2
    },
    {
      "matrix": [
        1.0145882968102213,
        0,
        0,
        0,
        0,
        -0.9891267912446141,
        1.206824300743028e-16,
        0,
        0,
        -1.211322606681889e-16,
        -0.9854536711167261,
        0,
        7.105427357601001e-15,
        1.8975519688297666,
        -1.4210854715202002e-14,
        0.9999999999999998
      ],
      "name": "Lathe",
      "mesh": 3
    },
    {
      "matrix": [
        0.9698698797136913,
        0,
        -0.24362351369305468,
        0,
        0,
        1,
        0,
        0,
        0.24362351369305468,
        0,
        0.9698698797136913,
        0,
        1.9136755105803616,
        39.67177005471792,
        62.5265594996245,
        1
      ],
      "name": "Group 2",
      "children": [
        5,
        6,
        7
      ]
    },
    {
      "matrix": [
        0.9995486296187326,
        -8.673617379884035e-19,
        -0.03004225403184188,
        0,
        -0.013963224732075792,
        0.8854229494383951,
        -0.46457639733728934,
        0,
        0.026600101172650957,
        0.46478618805620003,
        0.8850232957441241,
        0,
        36.49808824155663,
        480.1389311706443,
        877.8159957079213,
        1
      ],
      "name": "Camera",
      "camera": 0
    },
    {
      "matrix": [
        0.7981406903391609,
        0,
        -0.602471110033442,
        0,
        -0.1505272551523585,
        0.9682846189596525,
        -0.19941525052627607,
        0,
        0.5833635092129302,
        0.24984974822112727,
        0.7728273542212484,
        0,
        583.3635092129325,
        249.84974822112798,
        772.8273542212523,
        1
      ],
      "camera": 1
    },
    {
      "matrix": [
        1,
        0,
        0,
        0,
        0,
        1,
        0,
        0,
        0,
        0,
        1,
        0,
        0,
        1,
        0,
        1
      ],
      "name": "Default Ambient Light"
    },
    {
      "name": "Scene",
      "children": [
        1,
        2,
        3,
        4,
        8,
        9,
        10,
        11
      ]
    }
  ],
  "extensions": {
    "KHR_lights_punctual": {
      "lights": [
        {
          "name": "Directional Light 2",
          "color": [
            1,
            1,
            1
          ],
          "intensity": 0.282,
          "type": "directional"
        },
        {
          "name": "Directional Light",
          "color": [
            0.9265359976767865,
            0.5095108237901634,
            0.971844719451608
          ],
          "intensity": 0.487,
          "type": "directional"
        }
      ]
    }
  },
  "bufferViews": [
    {
      "buffer": 0,
      "byteOffset": 0,
      "byteLength": 288,
      "target": 34962,
      "byteStride": 12
    },
    {
      "buffer": 0,
      "byteOffset": 288,
      "byteLength": 288,
      "target": 34962,
      "byteStride": 12
    },
    {
      "buffer": 0,
      "byteOffset": 576,
      "byteLength": 192,
      "target": 34962,
      "byteStride": 8
    },
    {
      "buffer": 0,
      "byteOffset": 768,
      "byteLength": 144,
      "target": 34963
    },
    {
      "buffer": 0,
      "byteOffset": 912,
      "byteLength": 50700,
      "target": 34962,
      "byteStride": 12
    },
    {
      "buffer": 0,
      "byteOffset": 51612,
      "byteLength": 50700,
      "target": 34962,
      "byteStride": 12
    },
    {
      "buffer": 0,
      "byteOffset": 102312,
      "byteLength": 33800,
      "target": 34962,
      "byteStride": 8
    },
    {
      "buffer": 0,
      "byteOffset": 136112,
      "byteLength": 48384,
      "target": 34963
    },
    {
      "buffer": 0,
      "byteOffset": 184496,
      "byteLength": 50700,
      "target": 34962,
      "byteStride": 12
    },
    {
      "buffer": 0,
      "byteOffset": 235196,
      "byteLength": 50700,
      "target": 34962,
      "byteStride": 12
    },
    {
      "buffer": 0,
      "byteOffset": 285896,
      "byteLength": 33800,
      "target": 34962,
      "byteStride": 8
    },
    {
      "buffer": 0,
      "byteOffset": 319696,
      "byteLength": 48384,
      "target": 34963
    },
    {
      "buffer": 0,
      "byteOffset": 368080,
      "byteLength": 50700,
      "target": 34962,
      "byteStride": 12
    },
    {
      "buffer": 0,
      "byteOffset": 418780,
      "byteLength": 33800,
      "target": 34962,
      "byteStride": 8
    },
    {
      "buffer": 0,
      "byteOffset": 452580,
      "byteLength": 50700,
      "target": 34962,
      "byteStride": 12
    },
    {
      "buffer": 0,
      "byteOffset": 503280,
      "byteLength": 49152,
      "target": 34963
    }
  ],
  "buffers": [
    {
      "byteLength": 552432,
      "uri": "data:application/octet-stream;base64,"
    }
  ],
  "accessors": [
    {
      "bufferView": 0,
      "componentType": 5126,
      "count": 24,
      "max": [
        135.2885284423828,
        117.35902404785156,
        7.444245338439941
      ],
      "min": [
        -135.2885284423828,
        -117.35902404785156,
        0
      ],
      "type": "VEC3"
    },
    {
      "bufferView": 1,
      "componentType": 5126,
      "count": 24,
      "max": [
        1,
        1,
        1
      ],
      "min": [
        -1,
        -1,
        -1
      ],
      "type": "VEC3"
    },
    {
      "bufferView": 2,
      "componentType": 5126,
      "count": 24,
      "max": [
        1,
        1
      ],
      "min": [
        0,
        0
      ],
      "type": "VEC2"
    },
    {
      "bufferView": 3,
      "componentType": 5125,
      "count": 36,
      "max": [
        23
      ],
      "min": [
        0
      ],
      "type": "SCALAR"
    },
    {
      "bufferView": 4,
      "componentType": 5126,
      "count": 4225,
      "max": [
        5.159671783447266,
        26.904022216796875,
        16.460338592529297
      ],
      "min": [
        -5.159671783447266,
        -26.904022216796875,
        -16.460338592529297
      ],
      "type": "VEC3"
    },
    {
      "bufferView": 5,
      "componentType": 5126,
      "count": 4225,
      "max": [
        1,
        1,
        1
      ],
      "min": [
        -1,
        -1,
        -1
      ],
      "type": "VEC3"
    },
    {
      "bufferView": 6,
      "componentType": 5126,
      "count": 4225,
      "max": [
        1.0078125,
        1
      ],
      "min": [
        -0.0078125,
        0
      ],
      "type": "VEC2"
    },
    {
      "bufferView": 7,
      "componentType": 5123,
      "count": 24192,
      "max": [
        4224
      ],
      "min": [
        0
      ],
      "type": "SCALAR"
    },
    {
      "bufferView": 8,
      "componentType": 5126,
      "count": 4225,
      "max": [
        3.031773328781128,
        26.904020309448242,
        16.460338592529297
      ],
      "min": [
        -3.031773328781128,
        -26.904020309448242,
        -16.460338592529297
      ],
      "type": "VEC3"
    },
    {
      "bufferView": 9,
      "componentType": 5126,
      "count": 4225,
      "max": [
        1,
        1,
        1
      ],
      "min": [
        -1,
        -1,
        -1
      ],
      "type": "VEC3"
    },
    {
      "bufferView": 10,
      "componentType": 5126,
      "count": 4225,
      "max": [
        1.0078125,
        1
      ],
      "min": [
        -0.0078125,
        0
      ],
      "type": "VEC2"
    },
    {
      "bufferView": 11,
      "componentType": 5123,
      "count": 24192,
      "max": [
        4224
      ],
      "min": [
        0
      ],
      "type": "SCALAR"
    },
    {
      "bufferView": 12,
      "componentType": 5126,
      "count": 4225,
      "max": [
        32.09999084472656,
        52.63682556152344,
        32.09999084472656
      ],
      "min": [
        -32.09999084472656,
        -48.80000305175781,
        -32.09999084472656
      ],
      "type": "VEC3"
    },
    {
      "bufferView": 13,
      "componentType": 5126,
      "count": 4225,
      "max": [
        1,
        1
      ],
      "min": [
        0,
        0
      ],
      "type": "VEC2"
    },
    {
      "bufferView": 14,
      "componentType": 5126,
      "count": 4225,
      "max": [
        0.9999510645866394,
        0.9994149208068848,
        0.9999510645866394
      ],
      "min": [
        -0.9999510645866394,
        -0.9747315645217896,
        -0.9999510645866394
      ],
      "type": "VEC3"
    },
    {
      "bufferView": 15,
      "componentType": 5123,
      "count": 24576,
      "max": [
        4224
      ],
      "min": [
        0
      ],
      "type": "SCALAR"
    }
  ],
  "meshes": [
    {
      "primitives": [
        {
          "mode": 4,
          "attributes": {
            "POSITION": 0,
            "NORMAL": 1,
            "TEXCOORD_0": 2
          },
          "extras": {
            "shape": {
              "points": [
                -135.28852686336734,
                117.35902328847618,
                -135.28852686336734,
                117.35902328847618,
                -135.28852686336734,
                117.35902328847618,
                0,
                135.28852686336734,
                117.35902328847618,
                135.28852686336734,
                117.35902328847618,
                135.28852686336734,
                117.35902328847618,
                0,
                135.28852686336734,
                -117.35902328847618,
                135.28852686336734,
                -117.35902328847618,
                135.28852686336734,
                -117.35902328847618,
                0,
                -135.28852686336734,
                -117.35902328847618,
                -135.28852686336734,
                -117.35902328847618,
                -135.28852686336734,
                -117.35902328847618,
                0
              ],
              "shapeHoles": [],
              "isClosed": true,
              "roundness": 0
            },
            "parameters": {
              "width": 270.5770537267347,
              "depth": 7.444245246068042,
              "cornerRadius": [
                0,
                0,
                0,
                0
              ],
              "cornerType": 0,
              "extrudeBevelSize": 0,
              "extrudeBevelSegments": 1,
              "height": 234.71804657695236,
              "type": "RectangleGeometry"
            },
            "ui": {
              "enabledIndieCorners": false
            },
            "type": "RectangleGeometry"
          },
          "indices": 3
        }
      ]
    },
    {
      "primitives": [
        {
          "mode": 4,
          "attributes": {
            "POSITION": 4,
            "NORMAL": 5,
            "TEXCOORD_0": 6
          },
          "extras": {
            "parameters": {
              "width": 10.319343346358185,
              "widthSegments": 64,
              "heightSegments": 64,
              "phiStart": 0,
              "phiLength": 6.283185307179586,
              "thetaStart": 0,
              "thetaLength": 3.141592653589793,
              "height": 53.80804176321958,
              "depth": 32.92067805917542,
              "type": "SphereGeometry"
            },
            "type": "SphereGeometry"
          },
          "indices": 7
        }
      ]
    },
    {
      "primitives": [
        {
          "mode": 4,
          "attributes": {
            "POSITION": 8,
            "NORMAL": 9,
            "TEXCOORD_0": 10
          },
          "extras": {
            "parameters": {
              "width": 6.06354673057842,
              "widthSegments": 64,
              "heightSegments": 64,
              "phiStart": 0,
              "phiLength": 6.283185307179586,
              "thetaStart": 0,
              "thetaLength": 3.141592653589793,
              "height": 53.80804176321958,
              "depth": 32.92067805917542,
              "type": "SphereGeometry"
            },
            "type": "SphereGeometry"
          },
          "indices": 11
        }
      ]
    },
    {
      "primitives": [
        {
          "mode": 4,
          "attributes": {
            "POSITION": 12,
            "TEXCOORD_0": 13,
            "NORMAL": 14
          },
          "extras": {
            "parameters": {
              "width": 245.11181127131934,
              "segments": 64,
              "verticalSegments": 64,
              "points": [
                [
                  0,
                  -52.19999694824219
                ],
                [
                  43.79998779296875,
                  -60.19999694824219
                ],
                [
                  41.79998779296875,
                  40.80000305175781
                ],
                [
                  0,
                  48.80000305175781
                ]
              ],
              "height": 312.2144098353783,
              "depth": 209.6283578330004,
              "type": "LatheGeometry"
            },
            "type": "LatheGeometry"
          },
          "indices": 15
        }
      ]
    }
  ],
  "cameras": [
    {
      "type": "orthographic",
      "orthographic": {
        "xmag": 2.0053879188842982,
        "ymag": 0.9723891485785888,
        "zfar": 100000,
        "znear": 0
      },
      "name": "Camera"
    },
    {
      "type": "orthographic",
      "orthographic": {
        "xmag": 2.2220364752180592,
        "ymag": 1.0774394998100707,
        "zfar": 100000,
        "znear": 0
      }
    }
  ],
  "extensionsUsed": [
    "KHR_lights_punctual"
  ]
}